<svg xmlns="http://www.w3.org/2000/svg" width="1640" height="514" viewBox="0 0 1640 514" role="img" aria-labelledby="title desc">
  <title id="title">Consumer rebalance example</title>
  <desc id="desc">Six partitions assigned to four consumers are rebalanced across three consumers after one consumer leaves.</desc>
  
  <defs>
    <marker id="arrow" viewBox="0 0 10 10" refX="9" refY="5" markerWidth="8" markerHeight="8" markerUnits="strokeWidth" orient="auto-start-reverse">
      <path d="M0 0 10 5 0 10z" />
    </marker>
    <style>text{font-family:Arial,Helvetica,sans-serif;fill:#000}.box{fill:#fff;stroke:#808080;stroke-width:2}.line{fill:none;stroke:#000;stroke-width:2}.arrow{fill:none;stroke:#000;stroke-width:2;marker-end:url(#arrow)}.dash{stroke-dasharray:10 8}.msg{fill:#fff;stroke:#808080;stroke-width:2}.persist{fill:#cdfdc5;stroke:#808080;stroke-width:2}.new{fill:#fffec4;stroke:#808080;stroke-width:2}.note{fill:#fffec4;stroke:#808080;stroke-width:2;stroke-dasharray:10 8}</style>
  </defs>
  <rect id="background" width="1640" height="514" fill="#fff" />
  
  <g id="before-partitions">
    <rect class="box" x="44.2" y="59" width="146.5" height="69" />
    <rect class="msg" x="50.2" y="66.5" width="14.8" height="54.5" />
    <rect class="msg" x="70" y="66.5" width="15" height="54.5" />
    <rect class="msg" x="90" y="66.5" width="15" height="54.5" />
    <rect class="msg" x="110" y="66.5" width="15" height="54.5" />
    <rect class="msg" x="129.4" y="66.5" width="15.4" height="54.5" />
    <rect class="msg" x="149.2" y="66.5" width="15.7" height="54.5" />
    <rect class="msg" x="169.2" y="66.5" width="15.5" height="54.5" />
    <rect class="box" x="44" y="128" width="147" height="69.5" />
    <rect class="msg" x="50" y="135.5" width="15" height="55" />
    <rect class="msg" x="70" y="135.5" width="15" height="55" />
    <rect class="msg" x="90" y="135.5" width="15" height="55" />
    <rect class="msg" x="110" y="135.5" width="15" height="55" />
    <rect class="msg" x="129.2" y="135.5" width="15.8" height="55" />
    <rect class="msg" x="149.2" y="135.5" width="15.5" height="55" />
    <rect class="msg" x="169" y="135.5" width="15.5" height="55" />
    <rect class="box" x="44" y="197.5" width="147" height="68.5" />
    <rect class="msg" x="50.2" y="205" width="14.8" height="55" />
    <rect class="msg" x="70.2" y="205" width="14.7" height="55" />
    <rect class="msg" x="90.2" y="205" width="14.5" height="55" />
    <rect class="msg" x="110.2" y="205" width="14.5" height="55" />
    <rect class="msg" x="129.7" y="205" width="15" height="55" />
    <rect class="msg" x="149.5" y="205" width="15" height="55" />
    <rect class="msg" x="169.5" y="205" width="15" height="55" />
    <rect class="box" x="44" y="266" width="147" height="68.5" />
    <rect class="msg" x="50.3" y="273" width="14.5" height="55" />
    <rect class="msg" x="70.3" y="273" width="14.5" height="55" />
    <rect class="msg" x="90" y="273" width="14.8" height="55" />
    <rect class="msg" x="110" y="273" width="14.7" height="55" />
    <rect class="msg" x="129.5" y="273" width="15" height="55" />
    <rect class="msg" x="149.3" y="273" width="15.2" height="55" />
    <rect class="msg" x="169.3" y="273" width="15" height="55" />
    <rect class="box" x="44" y="334.5" width="147" height="69" />
    <rect class="msg" x="50" y="341.5" width="15" height="55" />
    <rect class="msg" x="70" y="341.5" width="15" height="55" />
    <rect class="msg" x="90" y="341.5" width="15" height="55" />
    <rect class="msg" x="110" y="341.5" width="15" height="55" />
    <rect class="msg" x="129.2" y="341.5" width="15.5" height="55" />
    <rect class="msg" x="149.2" y="341.5" width="15.5" height="55" />
    <rect class="msg" x="169" y="341.5" width="15.5" height="55" />
    <rect class="box" x="44" y="403.5" width="146.7" height="69.5" />
    <rect class="msg" x="50" y="411" width="15" height="54.5" />
    <rect class="msg" x="70" y="411" width="15" height="54.5" />
    <rect class="msg" x="90" y="411" width="15" height="54.5" />
    <rect class="msg" x="110" y="411" width="15" height="54.5" />
    <rect class="msg" x="129.2" y="411" width="15.7" height="54.5" />
    <rect class="msg" x="149.2" y="411" width="15.4" height="54.5" />
    <rect class="msg" x="169" y="411" width="15.6" height="54.5" />
  </g>
  <rect x="369" y="42" width="314" height="449" rx="10" fill="#fff" stroke="#808080" stroke-width="2" stroke-dasharray="10 8" />
  <text x="526" y="87" font-size="35" text-anchor="middle">Consumer Group</text>
  <rect class="box" x="390" y="116" width="271" height="80" rx="10" />
  <text x="527" y="169" font-size="35.5" text-anchor="middle">Consumer-1</text>
  <rect class="box" x="390" y="207" width="271" height="80" rx="10" />
  <text x="526" y="260" font-size="35.5" text-anchor="middle">Consumer-2</text>
  <rect class="box" x="390" y="298" width="271" height="80" rx="10" />
  <text x="526" y="351" font-size="35.5" text-anchor="middle">Consumer-3</text>
  <rect class="box" x="390" y="389" width="271" height="80" rx="10" />
  <text x="527" y="443" font-size="35" text-anchor="middle">Consumer-4</text>
  <!-- Before rebalance: every route starts at a partition edge and uses a distinct
       landing point on the consumer border so arrowheads never overlap. -->
  <path class="arrow" d="M190 99C275 103 322 112 390 128" />
  <path class="arrow" d="M190 163C235 207 305 224 390 234" />
  <path class="arrow" d="M190 232C242 278 305 304 390 315" />
  <path class="arrow" d="M190 300C248 369 310 398 390 411" />
  <path class="arrow" d="M190 369C248 236 312 174 390 162" />
  <path class="arrow" d="M190 438C247 325 312 267 390 258" />
  
  <path d="M761 232h73v-38l43 73 -43 73v-38h-73z" fill="#fff" stroke="#808080" stroke-width="2" />
  
  <g id="after-partitions">
    <rect class="box" x="954.3" y="59" width="146.7" height="69" />
    <rect class="msg" x="960.4" y="66.5" width="15.4" height="54.5" />
    <rect class="msg" x="980.4" y="66.5" width="15.4" height="54.5" />
    <rect class="msg" x="1000.2" y="66.5" width="15.7" height="54.5" />
    <rect class="msg" x="1020.2" y="66.5" width="14.8" height="54.5" />
    <rect class="msg" x="1040" y="66.5" width="15" height="54.5" />
    <rect class="msg" x="1060" y="66.5" width="15" height="54.5" />
    <rect class="msg" x="1080" y="66.5" width="15" height="54.5" />
    <rect class="box" x="954" y="128" width="147" height="69.5" />
    <rect class="msg" x="960.5" y="135.5" width="15.5" height="55" />
    <rect class="msg" x="980.2" y="135.5" width="15.5" height="55" />
    <rect class="msg" x="1000.2" y="135.5" width="15.5" height="55" />
    <rect class="msg" x="1020" y="135.5" width="15" height="55" />
    <rect class="msg" x="1040" y="135.5" width="15" height="55" />
    <rect class="msg" x="1060" y="135.5" width="15" height="55" />
    <rect class="msg" x="1080" y="135.5" width="15" height="55" />
    <rect class="box" x="954" y="197.5" width="147" height="68.5" />
    <rect class="msg" x="960.7" y="205" width="15" height="55" />
    <rect class="msg" x="980.5" y="205" width="15.2" height="55" />
    <rect class="msg" x="1000.5" y="205" width="15" height="55" />
    <rect class="msg" x="1020.2" y="205" width="14.8" height="55" />
    <rect class="msg" x="1040.2" y="205" width="14.7" height="55" />
    <rect class="msg" x="1060.2" y="205" width="14.5" height="55" />
    <rect class="msg" x="1080.2" y="205" width="14.5" height="55" />
    <rect class="box" x="954" y="266" width="147" height="68.5" />
    <rect class="msg" x="960.5" y="273" width="15" height="55" />
    <rect class="msg" x="980.5" y="273" width="15" height="55" />
    <rect class="msg" x="1000.3" y="273" width="15" height="55" />
    <rect class="msg" x="1020.3" y="273" width="14.5" height="55" />
    <rect class="msg" x="1040.3" y="273" width="14.5" height="55" />
    <rect class="msg" x="1060" y="273" width="14.8" height="55" />
    <rect class="msg" x="1080" y="273" width="14.7" height="55" />
    <rect class="box" x="954" y="334.5" width="147" height="69" />
    <rect class="msg" x="960.5" y="341.5" width="15.5" height="55" />
    <rect class="msg" x="980.2" y="341.5" width="15.5" height="55" />
    <rect class="msg" x="1000" y="341.5" width="15.8" height="55" />
    <rect class="msg" x="1020" y="341.5" width="15" height="55" />
    <rect class="msg" x="1040" y="341.5" width="15" height="55" />
    <rect class="msg" x="1060" y="341.5" width="15" height="55" />
    <rect class="msg" x="1080" y="341.5" width="15" height="55" />
    <rect class="box" x="954.3" y="403.5" width="146.5" height="69.5" />
    <rect class="msg" x="960.3" y="411" width="15.7" height="54.5" />
    <rect class="msg" x="980.2" y="411" width="15.7" height="54.5" />
    <rect class="msg" x="1000.2" y="411" width="15.4" height="54.5" />
    <rect class="msg" x="1020" y="411" width="15" height="54.5" />
    <rect class="msg" x="1040" y="411" width="15" height="54.5" />
    <rect class="msg" x="1060" y="411" width="15" height="54.5" />
    <rect class="msg" x="1080" y="411" width="15" height="54.5" />
  </g>
  <rect x="1281" y="88" width="309" height="358" rx="10" fill="#fff" stroke="#808080" stroke-width="2" stroke-dasharray="10 8" />
  <text x="1436" y="131" font-size="35" text-anchor="middle">Consumer Group</text>
  <rect class="box" x="1301" y="160" width="270" height="80" rx="10" />
  <text x="1437" y="213" font-size="35.5" text-anchor="middle">Consumer-1</text>
  <rect class="box" x="1301" y="251" width="270" height="80" rx="10" />
  <text x="1437" y="305" font-size="35.5" text-anchor="middle">Consumer-2</text>
  <rect class="box" x="1301" y="342" width="270" height="80" rx="10" />
  <text x="1437" y="396" font-size="35.5" text-anchor="middle">Consumer-3</text>
  <!-- After rebalance: paired assignments terminate at separated points on each
       consumer card, matching the PNG etalon. -->
  <path class="arrow" d="M1101 99C1140 125 1218 153 1301 168" />
  <path class="arrow" d="M1101 163C1145 183 1212 198 1301 200" />
  <path class="arrow" d="M1101 232C1151 229 1215 244 1301 258" />
  <path class="arrow" d="M1101 301C1148 340 1214 365 1301 369" />
  <path class="arrow" d="M1101 369C1148 314 1210 291 1301 298" />
  <path class="arrow" d="M1101 438C1155 405 1218 391 1301 392" />
</svg>
